<?xml version="1.0" encoding="iso-8859-1"?>
<!-- Uploaded to: SVG Repo, www.svgrepo.com, Generator: SVG Repo Mixer Tools -->
<svg fill="#000000" version="1.1" id="Layer_1" xmlns="http://www.w3.org/2000/svg" xmlns:xlink="http://www.w3.org/1999/xlink" 
	 viewBox="0 0 512 512" xml:space="preserve">
<g>
	<g>
		<rect x="122.435" y="445.217" width="33.391" height="33.391"/>
	</g>
</g>
<g>
	<g>
		<rect x="233.739" y="478.609" width="44.522" height="33.391"/>
	</g>
</g>
<g>
	<g>
		<rect x="155.826" y="478.609" width="44.522" height="33.391"/>
	</g>
</g>
<g>
	<g>
		<rect x="311.652" y="478.609" width="44.522" height="33.391"/>
	</g>
</g>
<g>
	<g>
		<rect x="356.174" y="445.217" width="33.391" height="33.391"/>
	</g>
</g>
<g>
	<g>
		<rect x="200.348" y="445.217" width="33.391" height="33.391"/>
	</g>
</g>
<g>
	<g>
		<rect x="278.261" y="445.217" width="33.391" height="33.391"/>
	</g>
</g>
<g>
	<g>
		<polygon points="55.652,0 55.652,512 122.435,512 122.435,478.609 89.044,478.609 89.044,33.391 422.957,33.391 422.957,478.609 
			389.565,478.609 389.565,512 456.348,512 456.348,0 		"/>
	</g>
</g>
<g>
	<g>
		<rect x="122.435" y="77.913" width="267.13" height="33.391"/>
	</g>
</g>
<g>
	<g>
		<rect x="122.435" y="356.174" width="155.826" height="33.391"/>
	</g>
</g>
<g>
	<g>
		<rect x="122.435" y="256" width="155.826" height="33.391"/>
	</g>
</g>
<g>
	<g>
		<rect x="122.435" y="166.957" width="155.826" height="33.391"/>
	</g>
</g>
<g>
	<g>
		<rect x="322.783" y="166.957" width="66.783" height="33.391"/>
	</g>
</g>
<g>
	<g>
		<rect x="322.783" y="256" width="66.783" height="33.391"/>
	</g>
</g>
<g>
	<g>
		<rect x="322.783" y="356.174" width="66.783" height="33.391"/>
	</g>
</g>
</svg>